<?xml version="1.0" encoding="UTF-8"?>
<svg version="1.1" viewBox="0 0 2048 1154" width="665" height="375" xmlns="http://www.w3.org/2000/svg">
<path transform="translate(613,339)" d="m0 0h59l6 4 7 9 8 16 13 27 7 16 8 16 14 29 13 30 3 3 4-2 6-12 10-24 12-27 8-16 13-29 10-24 8-11 6-4 4-1h59l5 5 2 4v6l-9 17-8 16-12 26-14 32-10 19-13 29-7 16-8 16-14 30-9 21-8 16-7 10-10 6-13 2-17-1-7-3-6-5-9-15-12-25-8-18-21-42-8-18-24-48-13-28-20-39-5-12v-9l3-5z" fill="#06121A"/>
<path transform="translate(1322,404)" d="m0 0h48l19 1 12 3 13 7 11 9 7 8 8 15 3 10v95l-3 12-7 13-11 12-10 9-14 7-11 3-10 1h-60l-13-2-12-4-10-6-18-18-6-10-4-13-2-13v-77l2-13 5-13 7-11 13-13 14-8 12-3zm-1 67-1 1-1 22v43l1 5 8 1h43l4-2 1-3v-63l-2-4z" fill="#06131B"/>
<path transform="translate(936,622)" d="m0 0h541l9 2 7 6 3 7-1 8-6 7-5 2-9 1h-806l-7-3-7-8-1-7 3-6 7-7 2-1z" fill="#08121A"/>
<path transform="translate(1052,404)" d="m0 0h87l11 1 3 3 1 4v52l-3 7-2 1-99 1-2 1-1 4v64h92l11 1 3 4 1 9v43l-2 7-4 3h-105l-14-2-11-4-11-6-10-9-7-8-8-16-3-14v-91l4-14 8-15 9-10 10-7 11-5 11-3z" fill="#08131B"/>
<path transform="translate(966,698)" d="m0 0h38l2 2 1 4v11l15 2 1 16h14l2-5v-8l1-4h13v-10l2-7 1-1h38l3 3v121l-4 4h-31l-4-5-1-29v-16l-8 4-1 1h-35l-9-4v44l-5 5h-31l-4-4-1-2v-119z" fill="#EC0F0F"/>
<path transform="translate(902,424)" d="m0 0h55l5 4v173l-4 6-5 2h-46l-7-3-3-3-1-3-1-23v-144l2-6z" fill="#0A121A"/>
<path transform="translate(1179,424)" d="m0 0h51l5 2 2 2v175l-6 5-6 1h-45l-5-3-4-5-1-168 3-7z" fill="#06131A"/>
<path transform="translate(1257,698)" d="m0 0h79l8 7 14 14 3 6 1 4v38l-2 7-10 10-2 1 2 6 12 16 7 10 2 7-3 2h-31l-9-11-13-18-4-6-20-1 1 11v18l-3 5-2 2h-29l-4-4v-122zm35 33-1 1v21l1 4h30l2-1v-25z" fill="#EC0F0F"/>
<path transform="translate(859,698)" d="m0 0h43l2 2v16h14l5 3v16l10 2 4 3v81l-5 5h-30l-4-4-1-5-1-18-35-1v24l-5 4h-30l-4-4v-83l6-3 7-1 1-3 1-14 3-2 16-1 1-13zm2 49v22h35l1-3v-19z" fill="#EC0F0F"/>
<path transform="translate(710,698)" d="m0 0h78l4 2 1 2v24l-2 4-2 1-70 1-1 64h39v-15l-10-1-3-2-1-3v-17l3-5 2-1h44l3 4 1 5v56l-1 7-5 3h-10l-7-3-10-7-2 5-4 4-46 1-9-7-8-9-10-8-2-3-1-24v-46l2-9 9-8 8-7z" fill="#EC1010"/>
<path transform="translate(1127,698)" d="m0 0h98l3 5v24l-5 4h-60v15l50 1 3 4 1 7v11l-2 7-2 2h-51v16l62 1 3 3 1 5v18l-4 5h-95l-4-5-1-67v-52z" fill="#EC0F0F"/>
<path transform="translate(900,875)" d="m0 0h258l5 3 2 3v9l-5 6-8 2h-250l-5-3-3-4-1-7 3-6z" fill="#06121A"/>
<path transform="translate(1200,340)" d="m0 0h8l12 3 9 6 6 5 5 8 3 12v9l-3 10-6 10-8 7-10 5-4 1h-16l-10-3-9-6-6-7-5-8-2-6v-15l3-9 9-11 9-7 8-3z" fill="#08121A"/>
<path transform="translate(921,341)" d="m0 0h19l10 3 9 7 6 8 4 13v12l-4 12-7 10-8 6-13 4h-12l-13-4-9-6-7-10-4-10v-15l5-12 7-9 5-4z" fill="#07121A"/>
<path transform="translate(1220,875)" d="m0 0h112l5 4 2 4-1 9-5 5-6 1h-105l-5-3-4-6v-7l5-6z" fill="#08121A"/>
<path transform="translate(743,875)" d="m0 0h93l6 5 1 9-4 7-6 2h-89l-5-3-3-4v-9l3-5z" fill="#0B121A"/>
<path transform="translate(616,624)" d="m0 0h9l6 3 5 6 1 2v8l-4 7-7 4h-8l-8-4-4-6-1-6 3-7 5-5z" fill="#0B131A"/>
</svg>
